GRF
version=1
nRows=37
nColumns=19
inDegrees=no
endheader
time	left_ground_force_vx	left_ground_force_vy	left_ground_force_vz	left_ground_force_px	left_ground_force_py	left_ground_force_pz	left_ground_torque_x	left_ground_torque_y	left_ground_torque_z	right_ground_force_vx	right_ground_force_vy	right_ground_force_vz	right_ground_force_px	right_ground_force_py	right_ground_force_pz	right_ground_torque_x	right_ground_torque_y	right_ground_torque_z
      1.77000000	      0.00000104	      0.00000218	      0.00000012	     -0.24997089	      0.00000000	     -0.37743504	      0.00000000	      0.00000029	      0.00000000	    -15.37184783	    343.22326767	     12.67667079	      0.25229652	      0.00000000	     -0.34834919	      0.00000000	     -3.36978983	     -0.00000000
      1.78000000	      0.00000017	      0.00000035	      0.00000002	     -0.24997089	      0.00000000	     -0.37743504	      0.00000000	      0.00000005	      0.00000000	    -12.31906010	    335.82705272	     12.03882288	      0.25291328	      0.00000000	     -0.34869456	      0.00000000	     -2.73045068	     -0.00000000
      1.79000000	      0.00000002	      0.00000005	      0.00000000	     -0.24997089	      0.00000000	     -0.37743504	      0.00000000	      0.00000001	      0.00000000	     -9.36235167	    328.07487034	     11.36540364	      0.25352474	      0.00000000	     -0.34905263	      0.00000000	     -2.10652516	     -0.00000000
      1.80000000	      0.00000000	      0.00000001	      0.00000000	     -0.24997089	      0.00000000	     -0.37743504	      0.00000000	      0.00000000	      0.00000000	     -6.49326737	    320.16412824	     10.66400183	      0.25413540	      0.00000000	     -0.34942957	      0.00000000	     -1.49564356	     -0.00000000
      1.81000000	      0.00000000	      0.00000000	      0.00000000	     -0.24997089	      0.00000000	     -0.37743504	      0.00000000	      0.00000000	      0.00000000	     -3.69954135	    312.28580644	      9.94654807	      0.25474765	      0.00000000	     -0.34982907	      0.00000000	     -0.89519937	     -0.00000000
      1.82000000	      0.00000000	      0.00000000	      0.00000000	     -0.24997089	      0.00000000	     -0.37743504	      0.00000000	      0.00000000	      0.00000000	     -0.96759633	    304.62249851	      9.22638657	      0.25536110	      0.00000000	     -0.35025149	      0.00000000	     -0.30320258	     -0.00000000
      1.83000000	      0.00000000	      0.00000000	      0.00000000	     -0.24997089	      0.00000000	     -0.37743504	      0.00000000	      0.00000000	      0.00000000	      1.71630478	    297.35096899	      8.51322786	      0.25597341	      0.00000000	     -0.35069356	      0.00000000	      0.28158742	      0.00000000
      1.84000000	      0.00000000	      0.00000000	      0.00000000	     -0.24997089	      0.00000000	     -0.37743504	      0.00000000	      0.00000000	      0.00000000	      4.36497978	    290.64488810	      7.80846970	      0.25658142	      0.00000000	     -0.35114906	      0.00000000	      0.85986278	      0.00000000
      1.85000000	      0.00000000	      0.00000000	      0.00000000	     -0.24997089	      0.00000000	     -0.37743504	      0.00000000	      0.00000000	      0.00000000	      6.98911714	    284.67190544	      7.10285879	      0.25718213	      0.00000000	     -0.35161146	      0.00000000	      1.43198963	      0.00000000
      1.86000000	      0.00000000	      0.00000000	      0.00000000	     -0.24997089	      0.00000000	     -0.37743504	      0.00000000	      0.00000000	      0.00000000	      9.59702061	    279.58221660	      6.37743458	      0.25777322	      0.00000000	     -0.35207821	      0.00000000	      1.99827202	      0.00000000
      1.87000000	      0.00000000	      0.00000000	      0.00000000	     -0.24997089	      0.00000000	     -0.37743504	      0.00000000	      0.00000000	      0.00000000	     12.19657440	    275.49102198	      5.60768090	      0.25835369	      0.00000000	     -0.35255415	      0.00000000	      2.55948697	      0.00000000
      1.88000000	      0.00000000	      0.00000000	      0.00000000	     -0.24997089	      0.00000000	     -0.37743504	      0.00000000	      0.00000000	      0.00000000	     14.79933993	    272.46011639	      4.76983573	      0.25892472	      0.00000000	     -0.35305172	      0.00000000	      3.11776877	      0.00000000
      1.89000000	      0.00000000	      0.00000000	      0.00000000	     -0.24997089	      0.00000000	     -0.37743504	      0.00000000	      0.00000000	      0.00000000	     17.42463818	    270.48221787	      3.84740296	      0.25949047	      0.00000000	     -0.35358734	      0.00000000	      3.67751733	      0.00000000
      1.90000000	      0.00000000	      0.00000000	      0.00000000	     -0.24997089	      0.00000000	     -0.37743504	      0.00000000	      0.00000000	      0.00000000	     20.10028943	    269.46831986	      2.83560938	      0.26005830	      0.00000000	     -0.35417585	      0.00000000	      4.24568830	      0.00000000
      1.91000000	      0.00000000	      0.00000000	      0.00000000	     -0.24997089	      0.00000000	     -0.37743504	      0.00000000	      0.00000000	      0.00000000	     22.85755036	    269.23751857	      1.74246004	      0.26063827	      0.00000000	     -0.35482634	      0.00000000	      4.83087969	      0.00000000
      1.92000000	      0.00000000	      0.00000000	      0.00000000	     -0.24997089	      0.00000000	     -0.37743504	      0.00000000	      0.00000000	      0.00000000	     25.72050456	    269.51102332	      0.58688726	      0.26124205	      0.00000000	     -0.35554101	      0.00000000	      5.44109217	      0.00000000
      1.93000000	      0.00000000	      0.00000000	      0.00000000	     -0.24997089	      0.00000000	     -0.37743504	      0.00000000	      0.00000000	      0.00000000	     28.69311020	    269.91384491	     -0.60403583	      0.26188163	      0.00000000	     -0.35631659	      0.00000000	      6.08068162	      0.00000000
      1.94000000	      0.00000000	      0.00000000	      0.00000000	     -0.24997089	      0.00000000	     -0.37743504	      0.00000000	      0.00000000	      0.00000000	     31.74830706	    269.98569670	     -1.79693826	      0.26256747	      0.00000000	     -0.35714623	      0.00000000	      6.74746292	      0.00000000
      1.95000000	      0.00000000	      0.00000000	      0.00000000	     -0.24997089	      0.00000000	     -0.37743504	      0.00000000	      0.00000000	      0.00000000	     34.82211948	    269.19808583	     -2.95271528	      0.26330623	      0.00000000	     -0.35802006	      0.00000000	      7.43082545	      0.00000000
      1.96000000	      0.00000000	      0.00000000	      0.00000000	     -0.24997089	      0.00000000	     -0.37743504	      0.00000000	      0.00000000	      0.00000000	     37.81248372	    266.97225900	     -4.02710598	      0.26409809	      0.00000000	     -0.35892398	      0.00000000	      8.11103996	      0.00000000
      1.97000000	      0.00000000	      0.00000000	      0.00000000	     -0.24997089	      0.00000000	     -0.37743504	      0.00000000	      0.00000000	      0.00000000	     40.57987607	    262.69638573	     -4.97292917	      0.26493493	      0.00000000	     -0.35983655	      0.00000000	      8.75910735	      0.00000000
      1.98000000	      0.00000000	      0.00000000	      0.00000000	     -0.24997089	      0.00000000	     -0.37743504	      0.00000000	      0.00000000	      0.00000000	     42.94695798	    255.74887767	     -5.74448403	      0.26580027	      0.00000000	     -0.36072346	      0.00000000	      9.33626097	      0.00000000
      1.99000000	      0.00000000	      0.00000000	      0.00000000	     -0.24997089	      0.00000000	     -0.37743504	      0.00000000	      0.00000000	      0.00000000	     44.69808741	    245.54214270	     -6.30295262	      0.26667125	      0.00000000	     -0.36152814	      0.00000000	      9.79309546	      0.00000000
      2.00000000	      0.00000000	      0.00000000	      0.00000000	     -0.24997089	      0.00000000	     -0.37743504	      0.00000000	      0.00000000	      0.00000000	     45.58514587	    231.60079180	     -6.62078017	      0.26752175	      0.00000000	     -0.36215810	      0.00000000	     10.06997484	      0.00000000
      2.01000000	      0.00000000	      0.00000000	      0.00000000	     -0.24997089	      0.00000000	     -0.37743504	      0.00000000	      0.00000000	      0.00000000	     45.35016939	    213.67728711	     -6.68373858	      0.26832508	      0.00000000	     -0.36247219	      0.00000000	     10.10172770	      0.00000000
      2.02000000	      0.00000000	      0.00000000	      0.00000000	     -0.24997089	      0.00000000	     -0.37743504	      0.00000000	      0.00000000	      0.00000000	     43.77330287	    191.88809738	     -6.49129776	      0.26905570	      0.00000000	     -0.36228112	      0.00000000	      9.82920546	      0.00000000
      2.03000000	      0.00000000	      0.00000000	      0.00000000	     -0.24997089	      0.00000000	     -0.37743504	      0.00000000	      0.00000000	      0.00000000	     40.74365912	    166.83063591	     -6.05743715	      0.26969033	      0.00000000	     -0.36137632	      0.00000000	      9.21727160	      0.00000000
      2.04000000	      0.00000000	      0.00000000	      0.00000000	     -0.24997089	      0.00000000	     -0.37743504	      0.00000000	      0.00000000	      0.00000000	     36.33298381	    139.62535776	     -5.41339038	      0.27020999	      0.00000000	     -0.35959305	      0.00000000	      8.27405003	      0.00000000
      2.05000000	      0.00000000	      0.00000000	      0.00000000	     -0.24997089	      0.00000000	     -0.37743504	      0.00000000	      0.00000000	      0.00000000	     30.83733137	    111.83129102	     -4.61091227	      0.27060342	      0.00000000	     -0.35689110	      0.00000000	      7.06250283	      0.00000000
      2.06000000	      0.00000000	      0.00000000	      0.00000000	     -0.24997089	      0.00000000	     -0.37743504	      0.00000000	      0.00000000	      0.00000000	     24.75369170	     85.21738017	     -3.72180624	      0.27087089	      0.00000000	     -0.35341458	      0.00000000	      5.69595300	      0.00000000
      2.07000000	      0.00000000	      0.00000000	      0.00000000	     -0.24997089	      0.00000000	     -0.37743504	      0.00000000	      0.00000000	      0.00000000	     18.68313923	     61.43203801	     -2.82976397	      0.27102596	      0.00000000	     -0.34949002	      0.00000000	      4.31536080	      0.00000000
      2.08000000	      0.00000000	      0.00000000	      0.00000000	     -0.24997089	      0.00000000	     -0.37743504	      0.00000000	      0.00000000	      0.00000000	     13.18950545	     41.67196475	     -2.01485940	      0.27109333	      0.00000000	     -0.34554905	      0.00000000	      3.05535286	      0.00000000
      2.09000000	      0.00000000	      0.00000000	      0.00000000	     -0.24997089	      0.00000000	     -0.37743504	      0.00000000	      0.00000000	      0.00000000	      8.66924180	     26.46948467	     -1.33640137	      0.27110296	      0.00000000	     -0.34200495	      0.00000000	      2.01249195	      0.00000000
      2.10000000	      0.00000000	      0.00000000	      0.00000000	     -0.24997089	      0.00000000	     -0.37743504	      0.00000000	      0.00000000	      0.00000000	      5.28432902	     15.67418497	     -0.82191016	      0.27108297	      0.00000000	     -0.33914019	      0.00000000	      1.22840924	      0.00000000
      2.11000000	      0.00000000	      0.00000000	      0.00000000	     -0.24997089	      0.00000000	     -0.37743504	      0.00000000	      0.00000000	      0.00000000	      2.97709118	      8.61928069	     -0.46688923	      0.27105425	      0.00000000	     -0.33705434	      0.00000000	      0.69254003	      0.00000000
      2.12000000	      0.00000000	      0.00000000	      0.00000000	     -0.24997089	      0.00000000	     -0.37743504	      0.00000000	      0.00000000	      0.00000000	      1.54579304	      4.38661209	     -0.24417392	      0.27102872	      0.00000000	     -0.33568447	      0.00000000	      0.35959760	      0.00000000
      2.13000000	      0.00000000	      0.00000000	      0.00000000	     -0.24997089	      0.00000000	     -0.37743504	      0.00000000	      0.00000000	      0.00000000	      0.73794782	      2.06009325	     -0.11725310	      0.27101071	      0.00000000	     -0.33487224	      0.00000000	      0.17156432	      0.00000000
